<?xml version="1.0" standalone="no"?>
<!DOCTYPE svg PUBLIC "-//W3C//DTD SVG 20010904//EN"
 "http://www.w3.org/TR/2001/REC-SVG-20010904/DTD/svg10.dtd">
<svg version="1.0" xmlns="http://www.w3.org/2000/svg"
 width="500.000000pt" height="500.000000pt" viewBox="0 0 500.000000 500.000000"
 preserveAspectRatio="xMidYMid meet">
<metadata>
Created by potrace 1.14, written by Peter Selinger 2001-2017
</metadata>
<g transform="translate(0.000000,500.000000) scale(0.100000,-0.100000)"
fill="#000000" stroke="none">
<path d="M2760 4676 c0 -7 11 -16 25 -18 35 -7 39 3 9 19 -33 16 -34 16 -34
-1z"/>
<path d="M2828 4683 c12 -2 30 -2 40 0 9 3 -1 5 -23 4 -22 0 -30 -2 -17 -4z"/>
<path d="M2925 4680 c11 -5 31 -9 45 -9 23 0 23 1 5 9 -11 5 -31 9 -45 9 -23
0 -23 -1 -5 -9z"/>
<path d="M2685 4670 c-8 -13 15 -13 35 0 12 8 11 10 -7 10 -12 0 -25 -4 -28
-10z"/>
<path d="M3000 4670 c0 -14 14 -18 35 -10 11 4 31 3 45 -1 23 -8 23 -8 7 5
-19 15 -87 19 -87 6z"/>
<path d="M3140 4660 c8 -5 11 -10 6 -10 -5 0 -3 -6 3 -14 8 -9 8 -22 2 -39 -9
-24 -9 -24 26 -17 19 5 38 11 41 15 4 4 -3 4 -15 1 -15 -5 -23 -3 -23 5 0 7
-7 21 -17 31 -13 14 -13 18 -2 18 11 0 11 2 -1 10 -8 5 -19 10 -25 10 -5 0 -3
-5 5 -10z"/>
<path d="M2915 4650 c3 -5 11 -10 16 -10 6 0 7 5 4 10 -3 6 -11 10 -16 10 -6
0 -7 -4 -4 -10z"/>
<path d="M3186 4651 c-7 -10 72 -26 81 -17 4 3 -4 6 -16 6 -12 0 -31 5 -41 10
-11 6 -21 6 -24 1z"/>
<path d="M2612 4635 c-11 -13 -9 -15 8 -15 11 0 20 7 20 15 0 19 -11 19 -28 0z"/>
<path d="M2550 4625 c-10 -12 -10 -15 4 -15 9 0 16 7 16 15 0 8 -2 15 -4 15
-2 0 -9 -7 -16 -15z"/>
<path d="M2490 4590 c-39 -40 -54 -118 -32 -162 9 -18 17 -38 18 -44 1 -6 9
-24 18 -40 l15 -29 -1 27 c-1 15 -6 24 -10 22 -4 -3 -8 -2 -9 3 -2 27 -11 57
-21 76 -7 12 -11 27 -9 32 2 6 4 20 5 33 2 29 19 29 28 0 6 -22 6 -22 7 -1 1
12 4 30 7 40 5 15 4 15 -5 3 -5 -8 -13 -11 -17 -8 -10 11 4 39 18 37 24 -3 38
1 38 10 0 16 -35 17 -50 1z"/>
<path d="M3007 4593 c-3 -5 1 -14 9 -20 7 -7 15 -9 19 -4 3 5 -1 12 -7 14 -7
3 2 3 21 0 24 -4 32 -3 27 5 -8 13 -62 16 -69 5z"/>
<path d="M3000 4509 c0 -5 5 -7 10 -4 6 3 10 8 10 11 0 2 -4 4 -10 4 -5 0 -10
-5 -10 -11z"/>
<path d="M2540 4430 c0 -5 5 -10 10 -10 6 0 10 5 10 10 0 6 -4 10 -10 10 -5 0
-10 -4 -10 -10z"/>
<path d="M2640 4350 c0 -5 5 -10 10 -10 6 0 10 5 10 10 0 6 -4 10 -10 10 -5 0
-10 -4 -10 -10z"/>
<path d="M2560 4270 c-6 -11 -8 -20 -6 -20 3 0 10 9 16 20 6 11 8 20 6 20 -3
0 -10 -9 -16 -20z"/>
<path d="M2590 4260 c-9 -6 -10 -10 -3 -10 6 0 15 5 18 10 8 12 4 12 -15 0z"/>
<path d="M1277 3958 c22 -24 52 -63 64 -88 l24 -45 0 -935 c0 -995 1 -976 -48
-1075 -10 -22 -33 -55 -50 -72 l-31 -33 137 0 137 0 0 1145 0 1145 -137 0
-137 0 41 -42z"/>
<path d="M1630 2855 l0 -1145 147 0 146 0 -39 28 c-45 33 -85 82 -110 138 -17
36 -19 77 -22 482 l-3 442 366 0 365 0 0 -382 c0 -319 -3 -393 -16 -447 -24
-95 -66 -182 -108 -224 l-37 -37 146 0 145 0 0 1145 0 1145 -147 0 -148 -1 28
-20 c43 -33 84 -100 113 -185 20 -62 28 -109 35 -228 10 -183 11 -361 3 -484
l-7 -92 -368 0 -369 0 0 363 c0 383 4 427 49 516 11 21 41 59 67 84 l47 47
-141 0 -142 0 0 -1145z"/>
<path d="M2730 2855 l0 -1145 161 0 161 0 -31 25 c-44 38 -72 89 -73 133 0 22
32 141 76 278 43 131 81 250 85 264 l8 25 221 3 221 2 81 -247 c44 -137 83
-270 86 -298 7 -60 -10 -131 -39 -162 l-20 -23 117 0 c118 0 118 0 112 23 -8
31 -566 1760 -569 1763 -5 4 -262 52 -265 49 -2 -2 16 -14 39 -26 68 -34 163
-135 182 -193 9 -27 17 -58 17 -68 0 -14 -260 -844 -417 -1333 -35 -109 -38
-40 -38 950 0 1039 -3 982 61 1075 l34 50 -105 0 -105 0 0 -1145z m704 -12
c43 -131 81 -244 84 -250 3 -10 -34 -13 -168 -13 -134 0 -171 3 -168 13 3 6
41 119 84 250 43 130 81 237 84 237 3 0 41 -107 84 -237z"/>
<path d="M3405 3489 c11 -34 379 -1172 487 -1501 l90 -278 103 0 104 0 -33 37
c-19 20 -59 79 -89 132 -50 86 -79 167 -286 796 -126 385 -237 723 -246 751
-15 46 -19 51 -58 61 -23 7 -50 15 -61 19 -16 6 -17 4 -11 -17z"/>
<path d="M696 3300 c-9 -22 -17 -43 -18 -47 0 -5 -7 -17 -14 -28 -17 -23 -18
-35 -4 -35 6 0 9 3 8 8 -1 4 8 27 19 52 23 51 36 90 31 90 -2 0 -12 -18 -22
-40z"/>
<path d="M2989 3255 c-34 -19 -52 -63 -44 -108 6 -32 4 -37 -23 -51 -65 -34
-83 -106 -37 -151 29 -30 98 -34 146 -10 27 14 32 14 51 0 37 -25 84 -19 107
14 23 32 28 52 9 33 -16 -16 -40 -15 -63 2 -19 14 -19 15 4 58 13 23 32 51 43
61 20 17 19 17 -28 17 -37 0 -45 -3 -36 -12 16 -16 15 -49 -3 -72 -14 -18 -15
-18 -35 5 -35 41 -54 83 -41 87 52 17 81 86 50 118 -22 21 -71 26 -100 9z m64
-48 c7 -22 5 -32 -9 -48 -17 -19 -19 -19 -31 -3 -7 10 -13 33 -13 52 0 29 3
33 22 30 13 -2 25 -14 31 -31z m-83 -126 c0 -5 16 -32 36 -61 19 -28 33 -54
30 -57 -11 -12 -58 -5 -76 12 -26 23 -39 65 -29 93 8 21 39 32 39 13z"/>
<path d="M2925 1618 c-46 -24 -59 -78 -30 -128 21 -37 19 -71 -5 -77 -16 -4
-19 -11 -14 -27 9 -31 20 -39 43 -31 24 7 51 53 51 85 0 11 -9 39 -21 61 -22
44 -20 69 6 69 12 0 15 6 10 23 -10 32 -18 37 -40 25z"/>
<path d="M3031 1605 c-37 -32 -40 -67 -12 -121 21 -39 19 -59 -10 -74 -16 -9
-17 -14 -7 -35 14 -32 32 -32 63 0 31 30 33 85 5 130 -21 34 -18 65 7 65 10 0
12 6 8 23 -12 37 -21 39 -54 12z"/>
<path d="M1240 1491 l0 -131 30 0 c29 0 30 1 30 50 l0 50 35 0 35 0 0 -50 c0
-49 1 -50 30 -50 l30 0 0 130 0 130 -30 0 c-29 0 -30 -1 -30 -51 l0 -50 -37 3
c-38 3 -38 3 -38 48 0 42 -2 45 -27 48 l-28 3 0 -130z"/>
<path d="M1515 1608 c-12 -37 -65 -232 -65 -239 0 -15 50 -10 56 6 4 9 19 15
40 15 24 0 34 -5 34 -15 0 -10 10 -15 30 -15 33 0 36 9 20 56 -5 16 -21 68
-35 117 -24 79 -29 87 -51 87 -14 0 -26 -6 -29 -12z m42 -142 c-4 -9 -11 -16
-17 -16 -11 0 -13 30 -3 56 6 16 7 16 16 -4 5 -11 7 -28 4 -36z"/>
<path d="M1681 1594 c-27 -34 -26 -52 1 -110 l23 -46 -24 -19 c-17 -14 -22
-25 -17 -44 4 -14 12 -25 19 -25 24 0 56 30 67 64 9 30 8 41 -9 75 -25 48 -26
67 -5 79 22 12 9 52 -16 52 -10 0 -28 -12 -39 -26z"/>
<path d="M1801 1594 c-26 -33 -26 -60 -1 -102 25 -41 25 -57 0 -75 -16 -11
-19 -21 -14 -41 7 -31 23 -33 57 -6 37 29 43 72 18 121 -25 48 -26 65 -5 77
22 12 9 52 -16 52 -10 0 -28 -12 -39 -26z"/>
<path d="M1951 1578 c-6 -24 -22 -82 -35 -130 l-25 -88 30 0 c19 0 29 5 29 15
0 11 11 15 40 15 29 0 40 -4 40 -15 0 -10 10 -15 31 -15 22 0 30 4 26 14 -3 7
-20 66 -38 130 -31 111 -34 116 -60 116 -23 0 -28 -6 -38 -42z m52 -85 c6 -31
-7 -53 -22 -37 -11 10 -3 64 9 64 4 0 10 -12 13 -27z"/>
<path d="M2110 1490 l0 -130 25 0 c23 0 24 3 27 68 l3 67 38 -67 c31 -55 44
-68 63 -68 l24 0 0 130 0 130 -25 0 c-23 0 -24 -3 -27 -72 l-3 -73 -40 73
c-31 57 -44 72 -62 72 -23 0 -23 -1 -23 -130z"/>
<path d="M2445 1596 c-11 -17 -14 -35 -10 -58 5 -26 2 -38 -14 -52 -25 -23
-35 -65 -22 -100 14 -36 38 -43 74 -22 21 12 33 14 41 6 5 -5 23 -10 38 -10
35 0 38 30 6 54 -22 15 -22 16 -5 29 19 16 23 57 5 57 -6 0 -19 -7 -28 -15
-15 -14 -19 -14 -29 -1 -10 12 -8 21 9 44 18 24 21 35 13 59 -13 39 -55 44
-78 9z m52 -22 c8 -20 -13 -42 -27 -28 -12 12 -3 44 11 44 5 0 12 -7 16 -16z
m-19 -154 c-4 -19 -34 -25 -40 -8 -3 7 -1 24 4 38 9 25 10 25 24 5 8 -11 13
-26 12 -35z"/>
<path d="M2721 1578 c-6 -24 -21 -82 -35 -130 l-24 -88 29 0 c19 0 29 5 29 15
0 11 11 15 40 15 29 0 40 -4 40 -15 0 -10 10 -15 31 -15 21 0 30 4 27 13 -3 6
-20 65 -38 130 -32 112 -35 117 -61 117 -23 0 -28 -6 -38 -42z m52 -85 c6 -31
-7 -53 -22 -37 -11 10 -3 64 9 64 4 0 10 -12 13 -27z"/>
<path d="M3147 1590 c-62 -74 -33 -216 49 -236 108 -27 160 177 66 254 -9 6
-33 12 -53 12 -29 0 -43 -7 -62 -30z m97 -52 c32 -45 10 -118 -34 -118 -42 0
-59 82 -25 120 23 26 40 25 59 -2z"/>
<path d="M3373 1598 c-67 -73 -40 -228 42 -244 60 -11 103 32 75 76 -7 12 -12
12 -22 2 -18 -18 -56 -14 -68 7 -16 31 -12 86 8 104 23 21 31 21 53 1 17 -15
19 -15 30 10 10 22 9 29 -6 46 -26 28 -85 27 -112 -2z"/>
<path d="M3520 1492 c0 -71 2 -131 5 -134 3 -3 17 -3 30 0 l25 4 0 129 0 129
-30 0 -30 0 0 -128z"/>
<path d="M3665 1608 c-9 -27 -65 -232 -65 -240 0 -14 50 -8 56 7 4 9 19 15 40
15 24 0 34 -5 34 -15 0 -10 10 -15 30 -15 17 0 30 4 30 8 0 5 -16 62 -35 128
-19 65 -35 120 -35 121 0 10 -51 1 -55 -9z m42 -142 c-4 -9 -11 -16 -17 -16
-11 0 -13 30 -3 56 6 16 7 16 16 -4 5 -11 7 -28 4 -36z"/>
<path d="M3804 1611 c-2 -2 -4 -15 -4 -28 0 -18 5 -23 26 -23 l26 0 -4 -100
-3 -100 28 0 27 0 0 100 c0 99 0 100 24 100 21 0 24 4 22 28 -3 26 -5 27 -70
27 -37 0 -69 -1 -72 -4z"/>
<path d="M3970 1490 l0 -131 68 3 c65 3 67 4 70 31 3 26 2 27 -42 27 -39 0
-46 3 -46 20 0 17 7 20 40 20 38 0 40 2 40 30 0 28 -2 30 -40 30 -33 0 -40 3
-40 20 0 17 7 20 40 20 38 0 40 2 40 30 l0 30 -65 0 -65 0 0 -130z"/>
<path d="M4151 1594 c-27 -34 -26 -65 2 -115 l22 -40 -24 -19 c-17 -15 -22
-26 -17 -45 8 -32 30 -32 61 0 31 30 33 80 5 135 -20 39 -20 39 0 53 13 9 17
20 13 35 -7 30 -37 28 -62 -4z"/>
<path d="M2380 710 c0 -5 7 -10 15 -10 8 0 19 -9 25 -19 8 -16 6 -20 -8 -24
-9 -3 -5 -4 11 -4 35 2 34 18 -3 45 -33 24 -40 27 -40 12z"/>
<path d="M2462 624 c10 -10 20 -16 22 -13 3 3 -5 11 -17 18 -21 13 -21 12 -5
-5z"/>
<path d="M2470 585 c-18 -21 -3 -32 16 -13 10 9 12 18 6 22 -5 3 -15 -1 -22
-9z"/>
<path d="M2496 535 c-9 -26 -7 -32 5 -12 6 10 9 21 6 23 -2 3 -7 -2 -11 -11z"/>
<path d="M2011 504 c0 -11 3 -14 6 -6 3 7 2 16 -1 19 -3 4 -6 -2 -5 -13z"/>
<path d="M2511 504 c0 -11 3 -14 6 -6 3 7 2 16 -1 19 -3 4 -6 -2 -5 -13z"/>
<path d="M2502 458 c-7 -7 -12 -18 -12 -26 0 -9 -6 -12 -16 -8 -14 5 -15 4 -4
-9 10 -12 16 -13 27 -4 8 7 12 18 9 24 -2 7 1 18 7 24 6 6 9 11 6 11 -3 0 -10
-5 -17 -12z"/>
<path d="M1931 447 c-9 -12 -8 -16 3 -20 19 -7 32 11 19 24 -6 6 -14 5 -22 -4z"/>
<path d="M2060 450 c0 -5 5 -10 10 -10 6 0 10 5 10 10 0 6 -4 10 -10 10 -5 0
-10 -4 -10 -10z"/>
<path d="M1790 388 c0 -5 6 -8 14 -8 8 0 22 -3 30 -6 12 -4 15 -2 10 9 -5 15
-54 19 -54 5z"/>
<path d="M2414 371 c8 -8 22 -10 35 -6 32 10 25 20 -14 20 -29 0 -32 -2 -21
-14z"/>
<path d="M1816 345 c-3 -8 -12 -12 -21 -9 -8 3 -15 1 -15 -5 0 -6 3 -11 8 -11
4 0 18 -3 32 -6 20 -5 22 -4 10 6 -11 9 -12 13 -2 17 14 5 16 23 3 23 -5 0
-11 -7 -15 -15z"/>
<path d="M2368 349 c-10 -5 -18 -15 -18 -21 0 -9 3 -9 12 0 7 7 20 12 31 12
10 0 15 5 12 10 -8 12 -15 12 -37 -1z"/>
<path d="M2320 336 c0 -9 5 -16 10 -16 6 0 10 4 10 9 0 6 -4 13 -10 16 -5 3
-10 -1 -10 -9z"/>
<path d="M2065 320 c-3 -5 -1 -10 4 -10 6 0 11 5 11 10 0 6 -2 10 -4 10 -3 0
-8 -4 -11 -10z"/>
<path d="M2210 326 c0 -9 30 -14 35 -6 4 6 -3 10 -14 10 -12 0 -21 -2 -21 -4z"/>
<path d="M2280 315 c0 -8 5 -15 10 -15 6 0 10 7 10 15 0 8 -4 15 -10 15 -5 0
-10 -7 -10 -15z"/>
<path d="M1859 307 c5 -5 24 -7 42 -5 33 3 33 4 -8 8 -23 3 -39 2 -34 -3z"/>
<path d="M1940 298 c0 -5 16 -8 35 -8 19 0 35 3 35 8 0 4 -16 7 -35 7 -19 0
-35 -3 -35 -7z"/>
<path d="M2140 300 c0 -5 5 -10 10 -10 6 0 10 5 10 10 0 6 -4 10 -10 10 -5 0
-10 -4 -10 -10z"/>
<path d="M2183 293 c9 -2 23 -2 30 0 6 3 -1 5 -18 5 -16 0 -22 -2 -12 -5z"/>
</g>
</svg>
